<svg width="100" height="100" viewBox="0 0 100 100" fill="none" xmlns="http://www.w3.org/2000/svg">
<path fill-rule="evenodd" clip-rule="evenodd" d="M50.8333 68.9075C56.1865 68.9075 60.6328 64.9923 61.5097 59.8464C77.9909 57.7713 90 50.3798 90 32.0187C90 19.0098 74.5954 0 74.5954 0C74.5954 0 82.0732 4.98273 85.3553 8.31407C104.882 28.1323 104.882 60.264 85.3553 80.0823L50.8333 100L14.6446 80.0823C-4.88156 60.264 -4.88155 28.1323 14.6447 8.31407C17.9268 4.98275 25.4046 1.43951e-05 25.4046 1.43951e-05C25.4046 1.43951e-05 9.99998 19.0098 9.99998 32.0187C9.99998 51.0059 22.8423 58.2626 40.1918 60.0404C41.146 65.0902 45.5475 68.9075 50.8333 68.9075ZM33.3333 75.4717C35.2712 75.4717 36.8421 73.7823 36.8421 71.6981C36.8421 69.614 35.2712 67.9245 33.3333 67.9245C31.3954 67.9245 29.8246 69.614 29.8246 71.6981C29.8246 73.7823 31.3954 75.4717 33.3333 75.4717ZM54.386 79.2453C54.386 81.3294 52.8151 83.0189 50.8772 83.0189C48.9393 83.0189 47.3684 81.3294 47.3684 79.2453C47.3684 77.1611 48.9393 75.4717 50.8772 75.4717C52.8151 75.4717 54.386 77.1611 54.386 79.2453ZM68.4211 75.4717C70.3589 75.4717 71.9298 73.7823 71.9298 71.6981C71.9298 69.614 70.3589 67.9245 68.4211 67.9245C66.4832 67.9245 64.9123 69.614 64.9123 71.6981C64.9123 73.7823 66.4832 75.4717 68.4211 75.4717Z" fill="#CDA653"/>
</svg>
